<?xml version="1.0" encoding="utf-8"?>
<!-- Generator: Adobe Illustrator 24.0.1, SVG Export Plug-In . SVG Version: 6.00 Build 0)  -->
<svg version="1.1" id="Calque_1" xmlns="http://www.w3.org/2000/svg" xmlns:xlink="http://www.w3.org/1999/xlink" x="0px" y="0px"
	 viewBox="0 0 50 18.2" style="enable-background:new 0 0 50 18.2;" xml:space="preserve">
<style type="text/css">
	.st0{fill:#F76236;}
</style>
<path id="Path_106" class="st0" d="M18.7,18.2c-5.2,0-10.4,0-15.6,0c-0.3,0-0.7,0-1-0.1c-1.5-0.4-2.3-1.9-1.9-3.4
	c0.3-1.1,1.3-1.9,2.4-2c0.2,0,0.4,0,0.6,0c9.9,0,19.9,0,29.8,0c0.3,0,0.7-0.1,0.9-0.4c3.8-3.8,7.6-7.6,11.4-11.4
	c0.5-0.6,1.3-0.9,2-0.9c1.1,0,2.1,0.6,2.5,1.6c0.5,1,0.3,2.2-0.5,3c-0.1,0.1-0.2,0.2-0.3,0.3c-4.1,4.1-8.2,8.2-12.3,12.3
	c-0.6,0.7-1.5,1-2.4,1C29.1,18.2,23.9,18.2,18.7,18.2L18.7,18.2z"/>
</svg>
